# AST/ASF file generated using VICON BodyLanguage
# -----------------------------------------------
:version 1.10
:name VICON
:units
  mass 1.0
  length 0.45
  angle deg
:documentation
   .ast/.asf automatically generated from VICON data using
   VICON BodyBuilder and BodyLanguage model FoxedUp or BRILLIANT.MOD
:root
   order TX TY TZ RX RY RZ
   axis XYZ
   position 0 0 0  
   orientation 0 0 0 
:bonedata
  begin
     id 1 
     name lhipjoint
     direction 0.561145 -0.797705 0.220866 
     length 2.46425 
     axis 0 0 0  XYZ
  end
  begin
     id 2 
     name lfemur
     direction 0.34202 -0.939693 0  
     length 7.95556  
     axis 0 0 20  XYZ
    dof rx ry rz
    limits (-160.0 20.0)
           (-70.0 70.0)
           (-60.0 70.0)
  end
  begin
     id 3 
     name ltibia
     direction 0.34202 -0.939693 0   
     length 7.9832   
     axis 0 0 20   XYZ
    dof rx
    limits (-10.0 170.0)
  end
  begin
     id 4 
     name lfoot
     direction 0.0723927 -0.198897 0.977343   
     length 2.23085   
     axis -90 7.62852e-016 20   XYZ
    dof rx rz
    limits (-45.0 90.0)
           (-70.0 20.0)
  end
  begin
     id 5 
     name ltoes
     direction 1.53826e-011 -4.21988e-011 1   
     length 1.12127   
     axis -90 7.62852e-016 20   XYZ
    dof rx
    limits (-90.0 20.0)
  end
  begin
     id 6 
     name rhipjoint
     direction -0.610499 -0.763299 0.21134   
     length 2.57533  
     axis 0 0 0  XYZ 
  end
  begin
     id 7 
     name rfemur
     direction -0.34202 -0.939693 0   
     length 8.65257   
     axis 0 0 -20   XYZ
    dof rx ry rz
    limits (-160.0 20.0)
           (-70.0 70.0)
           (-70.0 60.0)
  end
  begin
     id 8 
     name rtibia
     direction -0.342021 -0.939692 0   
     length 7.37807   
     axis 0 0 -20   XYZ
    dof rx
    limits (-10.0 170.0)
 end
 begin
     id 9 
     name rfoot
     direction -0.0239304 -0.0543852 0.998233   
     length 1.87018  
     axis -90 -7.62852e-016 -20   XYZ
    dof rx rz
    limits (-45.0 90.0)
           (-20.0 70.0)
  end
  begin
     id 10 
     name rtoes
     direction -1.53584e-011 -4.2242e-011 1   
     length 0.951568   
     axis -90 -7.62852e-016 -20   XYZ
    dof rx
    limits (-90.0 20.0)
  end
  begin
     id 11 
     name lowerback
     direction 0.00322089 0.999033 0.0438587   
     length 2.07568   
     axis 0 0 0   XYZ
    dof rx ry rz
    limits (-20.0 45.0)
           (-30.0 30.0)
           (-30.0 30.0)
  end
  begin
     id 12 
     name upperback
     direction -0.00321932 0.999732 -0.0229403   
     length 2.06253   
     axis 0 0 0   XYZ
    dof rx ry rz
    limits (-20.0 45.0)
           (-30.0 30.0)
           (-30.0 30.0)
  end
  begin
     id 13 
     name thorax
     direction -0.00537537 0.998955 -0.0453918   
     length 2.06975   
     axis 0 0 0   XYZ
    dof rx ry rz
    limits (-20.0 45.0)
           (-30.0 30.0)
           (-30.0 30.0)
  end
  begin
     id 14 
     name lowerneck
     direction -0.00013604 0.994111 0.108363   
     length 1.50836   
     axis 0 0 0   XYZ
    dof rx ry rz
    limits (-20.0 45.0)
           (-30.0 30.0)
           (-30.0 30.0)
  end
  begin
     id 15 
     name upperneck
     direction 0.0397262 0.983859 -0.174482   
     length 1.53037   
     axis 0 0 0   XYZ
    dof rx ry rz
    limits (-20.0 45.0)
           (-30.0 30.0)
           (-30.0 30.0)
  end
  begin
     id 16
     name head
     direction 0.0109991 0.997082 -0.0755378  
     length 1.56928  
     axis 0 0 0   XYZ
    dof rx ry rz
    limits (-20.0 45.0)
           (-30.0 30.0)
           (-30.0 30.0)
  end
  begin
     id 17 
     name lclavicle
     direction 0.964749 0.254 -0.068874  
     length 3.26503  
     axis 0 0 0   XYZ
    dof ry rz
    limits (-20.0 10.0)
           (0.0 20.0)
  end
  begin
     id 18 
     name lhumerus
     direction 1 -4.48941e-011 -2.05079e-027   
     length 5.68236   
     axis 180 -30 -90   XYZ
    dof rx ry rz
    limits (-60.0 90.0)
           (-90.0 90.0)
           (-90.0 90.0)
  end
  begin
     id 19
     name lradius
     direction 1 -4.48956e-011 6.2882e-027   
     length 3.17112   
     axis 180 -30 -90   XYZ
    dof rx
    limits (-10.0 170.0)
  end
  begin
     id 20
     name lwrist
     direction 1 -4.49014e-011 1.73219e-026   
     length 1.58556   
     axis -1.04724e-014 90 90   XYZ
    dof ry
    limits (-180.0 0.0)
 end
  begin
     id 21 
     name lhand
     direction 1 -4.49312e-011 3.46438e-026   
     length 0.632691   
     axis -2.21057e-014 90 90   XYZ
    dof rx rz
    limits (-90.0 90.0)
           (-45.0 45.0)
  end
  begin
     id 22 
     name lfingers
     direction 1 -4.48894e-011 6.92876e-026   
     length 0.510091   
     axis -4.42114e-014 90 90   XYZ
    dof rx
    limits (0.0 90.0)
  end
  begin
     id 23
     name lthumb
     direction 0.707107 -6.34705e-011 0.707107   
     length 0.732392   
     axis -90 45 2.85299e-015   XYZ
    dof rx rz
    limits (-45.0 45.0)
           (-45.0 45.0)
  end
  begin
     id 24 
     name rclavicle
     direction -0.954374 0.280496 -0.102435   
     length 3.25419  
     axis 0 0 0   XYZ 
    dof ry rz
    limits (-10.0 20.0)
           (-20.0 0.0)
  end
  begin
     id 25 
     name rhumerus
     direction -1 -4.48994e-011 -1.07204e-017  
     length 5.8712   
     axis 180 30 90   XYZ
    dof rx ry rz
    limits (-90.0 60.0)
           (-90.0 90.0)
           (-90.0 90.0)
  end
  begin
     id 26 
     name rradius
     direction -1 -4.48972e-011 5.89292e-027   
     length 3.37589   
     axis 180 30 90   XYZ
    dof rx
    limits (-10.0 170.0)
  end
  begin
     id 27 
     name rwrist
     direction -1 -4.48942e-011 1.73219e-026   
     length 1.68794   
     axis -1.04724e-014 -90 -90   XYZ
    dof ry
    limits (-180.0 0.0)
  end
  begin
     id 28
     name rhand
     direction -1 -4.48514e-011 3.46438e-026   
     length 0.603257   
     axis -2.21057e-014 -90 -90   XYZ
    dof rx rz
    limits (-90.0 90.0)
           (-45.0 45.0)
  end
  begin
     id 29
     name rfingers
     direction -1 -4.50028e-011 6.92876e-026   
     length 0.486362   
     axis -4.42114e-014 -90 -90   XYZ
    dof rx
    limits (0.0 90.0)
  end
  begin
     id 30
     name rthumb
     direction -0.707107 -6.34926e-011 0.707107   
     length 0.698321   
     axis -90 -45 -2.85299e-015   XYZ
    dof rx rz
    limits (-45.0 45.0)
           (-45.0 45.0)
  end
:hierarchy
  begin
    root lhipjoint rhipjoint lowerback
    lhipjoint lfemur
    lfemur ltibia
    ltibia lfoot
    lfoot ltoes
    rhipjoint rfemur
    rfemur rtibia
    rtibia rfoot
    rfoot rtoes
    lowerback upperback
    upperback thorax
    thorax lowerneck lclavicle rclavicle
    lowerneck upperneck
    upperneck head
    lclavicle lhumerus
    lhumerus lradius
    lradius lwrist
    lwrist lhand lthumb
    lhand lfingers
    rclavicle rhumerus
    rhumerus rradius
    rradius rwrist
    rwrist rhand rthumb
    rhand rfingers
  end

#!OML:ASF I:\Segmentation\Patient Classification 1\Patient 1\Session 1\Patient1.ASF
:FULLY-SPECIFIED
:DEGREES
1288
root 31.1414 17.9042 -2.39895 -158.524 -54.622 -546.851
lowerback -9.62664 3.24631 -3.61656
upperback -0.153365 4.73237 -0.776859
thorax 5.00372 2.24385 1.85797
lowerneck -19.5253 5.59196 2.62791
upperneck 17.6226 8.51255 -7.69588
head 9.23141 3.24924 -1.90857
rclavicle 9.54166e-015 2.38542e-015
rhumerus -24.8284 3.0452 -72.3637
rradius 48.1174
rwrist 9.23037
rhand -14.5855 29.9775
rfingers 7.12502
rthumb 11.5645 0.316541
lclavicle 9.54166e-015 2.38542e-015
lhumerus -28.3463 8.37973 69.3367
lradius 36.5849
lwrist 23.7202
lhand -19.2526 34.7218
lfingers 7.12502
lthumb 7.06135 64.584
rfemur -18.6985 -2.98326 20.0523
rtibia 38.9781
rfoot -44.8205 13.6385
rtoes 36.6046
lfemur -42.9122 12.2459 -32.8867
ltibia 38.7268
lfoot -23.8566 15.1577
ltoes -15.251
1289
root 31.0812 17.905 -2.41147 -158.477 -55.1115 -547.011
lowerback -9.53975 3.1773 -3.67772
upperback -0.114902 4.64793 -0.828596
thorax 4.99951 2.2013 1.82316
lowerneck -19.6194 5.52327 2.60537
upperneck 17.5865 8.39834 -7.58064
head 9.22195 3.20814 -1.87989
rclavicle -9.83984e-015 1.19271e-015
rhumerus -24.9979 3.34211 -72.7162
rradius 49.0716
rwrist 8.94238
rhand -14.5798 30.443
rfingers 7.12502
rthumb 11.57 0.782347
lclavicle -9.83984e-015 1.19271e-015
lhumerus -28.8103 9.06638 69.0821
lradius 36.0035
lwrist 23.2043
lhand -19.1537 34.8964
lfingers 7.12502
lthumb 7.15678 64.7553
rfemur -18.3993 -3.73143 19.9118
rtibia 39.2719
rfoot -43.1546 15.5788
rtoes 38.7149
lfemur -42.5927 11.9486 -32.843
ltibia 38.673
lfoot -23.5974 13.4898
ltoes -13.6299
1290
root 31.0116 17.9101 -2.42663 -158.635 -55.5905 -547.065
lowerback -9.41276 3.08286 -3.74598
upperback -0.0642109 4.52404 -0.760868
thorax 4.97735 2.13883 1.90925
lowerneck -19.6166 5.47567 2.49354
upperneck 17.6085 8.34923 -7.5029
head 9.2176 3.18566 -1.84244
rclavicle -1.80894e-014 3.53837e-014
rhumerus -25.2237 3.8515 -72.9612
rradius 50.0746
rwrist 8.58652
rhand -14.901 30.8508
rfingers 7.12502
rthumb 11.2602 1.17297
lclavicle -1.80894e-014 3.53837e-014
lhumerus -29.4508 9.90363 68.9534
lradius 35.4033
lwrist 22.6094
lhand -18.4066 36.0364
lfingers 7.12502
lthumb 7.87793 65.8696
rfemur -17.9614 -4.33499 19.7725
rtibia 39.5687
rfoot -41.8892 16.0495
rtoes 39.5881
lfemur -42.0704 11.4783 -32.5923
ltibia 38.5972
lfoot -23.3477 11.8507
ltoes -12.6891
1291
root 30.9344 17.9255 -2.44163 -158.847 -56.1363 -547.065
lowerback -9.3034 3.01408 -3.68824
upperback -0.0136898 4.423 -0.724804
thorax 4.97603 2.09045 1.89696
lowerneck -19.6232 5.40308 2.44881
upperneck 17.6913 8.25851 -7.46333
head 9.23857 3.14171 -1.83477
rclavicle -6.38099e-014 1.19271e-015
rhumerus -25.5591 4.36332 -73.2708
rradius 51.2084
rwrist 8.00288
rhand -15.2769 30.7382
rfingers 7.12502
rthumb 10.8977 1.04103
lclavicle -6.38099e-014 1.19271e-015
lhumerus -30.0813 10.6075 68.8849
lradius 34.7346
lwrist 22.4424
lhand -18.3567 36.2181
lfingers 7.12502
lthumb 7.92604 66.0496
rfemur -17.4865 -4.94645 19.6597
rtibia 39.8635
rfoot -41.2539 14.389
rtoes 38.1409
lfemur -41.5072 10.8112 -32.2577
ltibia 38.5373
lfoot -22.9684 10.7675
ltoes -14.0152
1292
root 30.8533 17.9342 -2.45493 -159.171 -56.7429 -546.968
lowerback -9.20161 3.00828 -3.41588
upperback 0.0769288 4.3904 -0.793189
thorax 5.04141 2.0805 1.66796
lowerneck -19.7347 5.27261 2.43184
upperneck 17.7923 8.05488 -7.29422
head 9.27286 3.0606 -1.80124
rclavicle -4.57205e-014 -1.78906e-014
rhumerus -25.8897 4.44572 -73.6633
rradius 52.1875
rwrist 7.61903
rhand -15.579 30.485
rfingers 7.12502
rthumb 10.6063 0.772664
lclavicle -4.57205e-014 -1.78906e-014
lhumerus -30.5453 11.1233 68.7512
lradius 33.9741
lwrist 22.0501
lhand -18.8716 35.881
lfingers 7.12502
lthumb 7.42913 65.7306
rfemur -16.9588 -5.68332 19.6265
rtibia 40.1876
rfoot -40.4834 13.22
rtoes 36.9641
lfemur -40.9185 10.1098 -31.9022
ltibia 38.4972
lfoot -22.6902 9.64946
ltoes -15.1892
1293
root 30.7711 17.9345 -2.46982 -159.788 -57.3878 -546.579
lowerback -9.09604 2.9432 -3.12458
upperback 0.161667 4.2692 -0.691611
thorax 5.09001 2.02674 1.59313
lowerneck -19.7602 5.15942 2.26784
upperneck 17.8617 7.91321 -7.12211
head 9.27874 3.00043 -1.7357
rclavicle -2.87244e-014 -1.63003e-014
rhumerus -26.1786 4.70528 -73.9192
rradius 52.9642
rwrist 7.30799
rhand -16.1062 30.5113
rfingers 7.12502
rthumb 10.0977 0.773586
lclavicle -2.87244e-014 -1.63003e-014
lhumerus -31.1482 11.7881 68.7166
lradius 33.1038
lwrist 21.5566
lhand -19.4089 35.7079
lfingers 7.12502
lthumb 6.91042 65.5752
rfemur -16.4621 -6.39832 19.7695
rtibia 40.5444
rfoot -39.6012 12.5988
rtoes 36.5252
lfemur -40.2958 9.41639 -31.3633
ltibia 38.5054
lfoot -22.716 8.1389
ltoes -13.9068
1294
root 30.6918 17.9401 -2.48351 -160.026 -58.0891 -546.468
lowerback -9.10784 2.77932 -3.09444
upperback 0.170869 4.04096 -0.522292
thorax 5.10636 1.91303 1.72442
lowerneck -19.5227 5.07196 2.10609
upperneck 17.777 7.82644 -7.10333
head 9.1952 2.95837 -1.7201
rclavicle -5.61567e-014 -2.54444e-014
rhumerus -26.5797 5.2045 -74.055
rradius 53.7644
rwrist 6.94205
rhand -16.9715 30.4805
rfingers 7.12502
rthumb 9.26281 0.704021
lclavicle -5.61567e-014 -2.54444e-014
lhumerus -31.8881 12.3375 68.8581
lradius 32.2361
lwrist 21.5495
lhand -20.1157 35.0772
lfingers 7.12502
lthumb 6.2281 64.9656
rfemur -16.1828 -7.07532 19.7543
rtibia 40.9608
rfoot -38.8068 12.0172
rtoes 35.5801
lfemur -39.8193 8.66955 -31.0421
ltibia 38.5239
lfoot -22.713 7.07067
ltoes -12.6327
1295
root 30.6139 17.9459 -2.49475 -160.326 -58.8528 -546.221
lowerback -9.1296 2.6678 -2.93414
upperback 0.167826 3.87107 -0.410692
thorax 5.12618 1.83199 1.73077
lowerneck -19.4224 4.99212 2.05318
upperneck 17.8264 7.71284 -7.00613
head 9.18168 2.91381 -1.69631
rclavicle 2.33572e-014 -3.02153e-014
rhumerus -27.0808 5.39578 -74.2337
rradius 54.5982
rwrist 6.67879
rhand -17.8363 30.2027
rfingers 7.12502
rthumb 8.42828 0.39089
lclavicle 2.33572e-014 -3.02153e-014
lhumerus -32.4754 12.8509 68.9165
lradius 31.331
lwrist 20.9475
lhand -19.8364 35.1511
lfingers 7.12502
lthumb 6.4978 65.0315
rfemur -15.9254 -7.64557 19.8365
rtibia 41.4153
rfoot -38.1113 11.7802
rtoes 34.9512
lfemur -39.4229 7.82427 -30.6379
ltibia 38.5671
lfoot -22.603 6.83632
ltoes -12.9139
1296
root 30.5352 17.9472 -2.50039 -160.177 -59.6047 -546.38
lowerback -9.20902 2.57033 -2.91687
upperback 0.144152 3.74192 -0.42972
thorax 5.15452 1.76815 1.68852
lowerneck -19.545 4.89086 2.02609
upperneck 18.0277 7.54965 -6.79428
head 9.25385 2.85204 -1.64031
rclavicle 6.03311e-014 -1.03368e-014
rhumerus -27.5675 5.36399 -74.4414
rradius 55.3388
rwrist 6.40707
rhand -18.5178 30.9452
rfingers 7.12502
rthumb 7.77057 1.10799
lclavicle 6.03311e-014 -1.03368e-014
lhumerus -32.872 13.3212 68.9723
lradius 30.2718
lwrist 20.2829
lhand -19.2377 36.6389
lfingers 7.12502
lthumb 7.07566 66.5006
rfemur -15.8473 -8.53185 19.6851
rtibia 41.9695
rfoot -36.9994 12.3313
rtoes 36.1077
lfemur -39.0926 6.77533 -30.4532
ltibia 38.5764
lfoot -22.552 6.99509
ltoes -13.3852
1297
root 30.4568 17.9501 -2.50755 -160.311 -60.3381 -546.283
lowerback -9.29239 2.47961 -2.85318
upperback 0.183887 3.61531 -0.359463
thorax 5.24833 1.70453 1.71548
lowerneck -19.6286 4.76814 1.98667
upperneck 18.0583 7.37414 -6.70009
head 9.26496 2.77661 -1.62508
rclavicle -5.02925e-014 1.90833e-014
rhumerus -27.9322 5.40349 -74.5929
rradius 55.9162
rwrist 5.83799
rhand -18.8954 32.6137
rfingers 7.12502
rthumb 7.40616 2.76338
lclavicle -5.02925e-014 1.90833e-014
lhumerus -33.1434 13.8293 69.1099
lradius 29.0503
lwrist 19.2958
lhand -18.5228 37.3612
lfingers 7.12502
lthumb 7.76577 67.1986
rfemur -15.75 -9.36891 19.6716
rtibia 42.5791
rfoot -35.9313 12.6291
rtoes 36.914
lfemur -38.7044 5.92616 -30.1676
ltibia 38.568
lfoot -22.5543 7.13486
ltoes -13.9417
1298
root 30.3791 17.9595 -2.51634 -160.625 -60.9924 -545.979
lowerback -9.42459 2.39029 -2.82206
upperback 0.239279 3.48981 -0.170434
thorax 5.37668 1.63843 1.88703
lowerneck -19.6404 4.65805 1.8516
upperneck 18.0311 7.25295 -6.6718
head 9.24577 2.71446 -1.61056
rclavicle -6.36111e-015 -1.55052e-014
rhumerus -28.2589 5.63018 -74.6485
rradius 56.4513
rwrist 4.94066
rhand -18.7686 32.858
rfingers 7.12502
rthumb 7.52855 3.01195
lclavicle -6.36111e-015 -1.55052e-014
lhumerus -33.4809 14.4002 69.4158
lradius 27.7767
lwrist 18.0744
lhand -18.1762 36.7065
lfingers 7.12502
lthumb 8.10026 66.5312
rfemur -15.5754 -9.9565 19.7207
rtibia 43.1525
rfoot -35.526 10.9877
rtoes 34.945
lfemur -38.3716 5.16675 -29.7954
ltibia 38.659
lfoot -22.5846 7.31512
ltoes -14.6507
